<svg width="11" height="18" viewBox="0 0 11 18" fill="none" xmlns="http://www.w3.org/2000/svg">
<path d="M9.67206 15.828L9.67205 15.828L2.84318 9.00005L9.67205 2.17211L9.67206 2.1721C9.85029 1.99386 9.95043 1.75212 9.95043 1.50005C9.95043 1.24798 9.85029 1.00624 9.67206 0.828005C9.49382 0.649767 9.25208 0.549634 9.00001 0.549634C8.74794 0.549634 8.5062 0.649767 8.32796 0.828004L0.828042 8.32793C0.739714 8.41616 0.669644 8.52093 0.621836 8.63626C0.574028 8.75159 0.54942 8.87521 0.54942 9.00005C0.54942 9.1249 0.574028 9.24852 0.621836 9.36384L0.806591 9.28726L0.621836 9.36384C0.669644 9.47917 0.739714 9.58395 0.828043 9.67218L8.32796 17.1721C8.41622 17.2604 8.52099 17.3304 8.6363 17.3781C8.75161 17.4259 8.8752 17.4505 9.00001 17.4505C9.12482 17.4505 9.24841 17.4259 9.36372 17.3781C9.47903 17.3304 9.5838 17.2604 9.67206 17.1721L9.53064 17.0307L9.67206 17.1721C9.76031 17.0838 9.83032 16.9791 9.87808 16.8638C9.92584 16.7485 9.95043 16.6249 9.95043 16.5001C9.95043 16.3752 9.92584 16.2517 9.87808 16.1363C9.83032 16.021 9.76031 15.9163 9.67206 15.828Z" fill="#1F1F22" stroke="#1F1F22" stroke-width="0.4"/>
</svg>
