<svg width="20" height="21" viewBox="0 0 20 21" fill="none" xmlns="http://www.w3.org/2000/svg">
<path d="M18.25 3.3H14.7V2.75C14.7 2.10022 14.4419 1.47705 13.9824 1.01759C13.5229 0.558124 12.8998 0.3 12.25 0.3H7.75C7.10022 0.3 6.47705 0.558124 6.01759 1.01759C5.55812 1.47705 5.3 2.10022 5.3 2.75V3.3H1.75C1.49804 3.3 1.25641 3.40009 1.07825 3.57825C0.900089 3.75641 0.8 3.99804 0.8 4.25C0.8 4.50196 0.900089 4.74359 1.07825 4.92175C1.25641 5.09991 1.49804 5.2 1.75 5.2H2.3V18.5C2.3 18.9509 2.47911 19.3833 2.79792 19.7021C3.11673 20.0209 3.54913 20.2 4 20.2H16C16.4509 20.2 16.8833 20.0209 17.2021 19.7021C17.5209 19.3833 17.7 18.9509 17.7 18.5V5.2H18.25C18.502 5.2 18.7436 5.09991 18.9218 4.92175C19.0999 4.74359 19.2 4.50196 19.2 4.25C19.2 3.99804 19.0999 3.75641 18.9218 3.57825C18.7436 3.40009 18.502 3.3 18.25 3.3ZM7.2 2.75C7.2 2.60413 7.25795 2.46424 7.36109 2.36109C7.46424 2.25795 7.60413 2.2 7.75 2.2H12.25C12.3959 2.2 12.5358 2.25795 12.6389 2.36109C12.7421 2.46424 12.8 2.60413 12.8 2.75V3.3H7.2V2.75ZM15.8 18.3H4.2V5.2H15.8V18.3ZM8.7 14.75V8.75C8.7 8.49804 8.59991 8.25641 8.42175 8.07825C8.24359 7.90009 8.00196 7.8 7.75 7.8C7.49804 7.8 7.25641 7.90009 7.07825 8.07825C6.90009 8.25641 6.8 8.49804 6.8 8.75V14.75C6.8 15.002 6.90009 15.2436 7.07825 15.4218C7.25641 15.5999 7.49804 15.7 7.75 15.7C8.00196 15.7 8.24359 15.5999 8.42175 15.4218C8.59991 15.2436 8.7 15.002 8.7 14.75ZM13.2 14.75V8.75C13.2 8.49804 13.0999 8.25641 12.9218 8.07825C12.7436 7.90009 12.502 7.8 12.25 7.8C11.998 7.8 11.7564 7.90009 11.5782 8.07825C11.4001 8.25641 11.3 8.49804 11.3 8.75V14.75C11.3 15.002 11.4001 15.2436 11.5782 15.4218C11.7564 15.5999 11.998 15.7 12.25 15.7C12.502 15.7 12.7436 15.5999 12.9218 15.4218C13.0999 15.2436 13.2 15.002 13.2 14.75Z" fill="white" stroke="white" stroke-width="0.4"/>
</svg>
